<svg version="1.1" xmlns="http://www.w3.org/2000/svg" width="512px" height="512px" transform="rotate(0) scale(1, 1)">
<path d="M0 0 C168.96 0 337.92 0 512 0 C512 168.96 512 337.92 512 512 C343.04 512 174.08 512 0 512 C0 343.04 0 174.08 0 0 Z " fill="#fefefe02" transform="translate(0,0)"/>
<path d="M0 0 C5.44286276 5.20121346 8.6957925 9.7282759 9.24609566 17.45570946 C9.24333028 19.37211707 9.24333028 19.37211707 9.24050903 21.32723999 C9.24222107 22.04118927 9.24393311 22.75513855 9.24569702 23.49072266 C9.24899416 25.87852115 9.23798217 28.26603595 9.22705078 30.65380859 C9.22643784 32.39668074 9.22670556 34.13955339 9.2277813 35.88242531 C9.22823225 40.54381607 9.21665233 45.20510385 9.20256042 49.86647034 C9.19115875 54.24277059 9.19063354 58.61904597 9.18920898 62.99536133 C9.17872018 75.78858782 9.15079781 88.58179522 9.125 101.375 C9.08375 129.96125 9.0425 158.5475 9 188 C121.2 188 233.4 188 349 188 C348.88124233 131.09663713 348.88124233 131.09663713 348.72973633 74.19335938 C348.71618652 63.18457031 348.71618652 63.18457031 348.71366882 58.02990723 C348.71087532 54.43186894 348.69963861 50.83396361 348.68327332 47.23596191 C348.66265932 42.64284483 348.65653333 38.04992042 348.66078317 33.45676136 C348.65989481 31.77335945 348.6539676 30.08995064 348.64235461 28.40658855 C348.52219101 10.13577285 348.52219101 10.13577285 354.3125 3.25 C360.50923987 -1.93796827 364.73187929 -4.35086236 372.84765625 -4.21484375 C379.32579351 -3.56820573 383.82139544 -0.991111 388 4 C392.57132439 10.22208041 393.1490801 14.43252782 393.14044189 22.0199585 C393.14489858 23.24168396 393.14489858 23.24168396 393.1494453 24.48809075 C393.15812602 27.22091203 393.15964002 29.95368946 393.16113281 32.68652344 C393.16576144 34.64455255 393.17078616 36.60258075 393.17617798 38.56060791 C393.1892999 43.88305216 393.19574656 49.2054838 393.20018864 54.5279417 C393.20311976 57.85343025 393.20722465 61.17891535 393.21169281 64.50440216 C393.22536733 74.90974911 393.23503415 85.31508818 393.2388947 95.72044349 C393.24337516 107.73060064 393.26092275 119.74064397 393.2898953 131.75076652 C393.3115143 141.03497417 393.3215991 150.3191498 393.32293582 159.60338235 C393.32398371 165.14804474 393.32988816 170.69260013 393.34775543 176.23723602 C393.36423976 181.45422202 393.36638979 186.67102061 393.35761642 191.88802338 C393.35684624 193.80038963 393.36118628 195.71276597 393.37107468 197.62510681 C393.38380526 200.24099577 393.37791142 202.8562221 393.36749268 205.47210693 C393.37554908 206.22426538 393.38360548 206.97642383 393.39190602 207.75137496 C393.33188841 214.21904659 391.94542997 219.68651571 387.6875 224.75 C381.07665124 230.28466408 376.92212336 232.12247154 368.4081459 232.13142776 C367.74408481 232.1334804 367.08002373 232.13553303 366.39583957 232.13764787 C364.16086752 232.1433221 361.925957 232.1418601 359.690979 232.14044189 C358.07630586 232.14302529 356.46163335 232.14603837 354.84696174 232.1494453 C350.40202391 232.15752157 345.95710222 232.15930522 341.51215792 232.16004276 C336.72129666 232.16189222 331.93044381 232.169439 327.1395874 232.17617798 C316.66028363 232.18976614 306.18098367 232.19578673 295.70167255 232.20018864 C289.15999838 232.20295016 282.6183257 232.20718734 276.07665253 232.21169281 C257.96930662 232.22388595 239.8619619 232.23418528 221.75461197 232.2375679 C220.01588602 232.23789725 220.01588602 232.23789725 218.2420343 232.23823325 C217.08009076 232.23845153 215.91814723 232.23866981 214.72099328 232.2388947 C212.36640437 232.23933817 210.01181547 232.23978473 207.65722656 232.24023438 C206.48926606 232.2404558 205.32130556 232.24067723 204.11795232 232.24090537 C185.18960389 232.24485402 166.26129395 232.2623099 147.3329604 232.2855939 C127.90562041 232.30929911 108.47829973 232.32176937 89.05094504 232.32293582 C78.14073577 232.32385303 67.23057664 232.32961698 56.32038116 232.34775543 C47.03070236 232.36314518 37.7410892 232.36828352 28.45140007 232.36001733 C23.711208 232.35610688 18.97114815 232.3570597 14.23097229 232.37107468 C9.8907773 232.38378978 5.55081422 232.38263713 1.21061966 232.37048396 C-0.35870853 232.36852282 -1.92805301 232.37162464 -3.49735829 232.38032833 C-20.87281485 232.47058751 -20.87281485 232.47058751 -27.75 226.6875 C-33.70666136 219.57259893 -35.15080603 215.08346337 -35.14044189 205.9800415 C-35.14341302 205.16555786 -35.14638414 204.35107421 -35.1494453 203.51190925 C-35.15812602 200.77908797 -35.15964002 198.04631054 -35.16113281 195.31347656 C-35.16576144 193.35544745 -35.17078616 191.39741925 -35.17617798 189.43939209 C-35.1892999 184.11694784 -35.19574656 178.7945162 -35.20018864 173.4720583 C-35.20311976 170.14656975 -35.20722465 166.82108465 -35.21169281 163.49559784 C-35.22536733 153.09025089 -35.23503415 142.68491182 -35.2388947 132.27955651 C-35.24337516 120.26939936 -35.26092275 108.25935603 -35.2898953 96.24923348 C-35.3115143 86.96502583 -35.3215991 77.6808502 -35.32293582 68.39661765 C-35.32398371 62.85195526 -35.32988816 57.30739987 -35.34775543 51.76276398 C-35.36423976 46.54577798 -35.36638979 41.32897939 -35.35761642 36.11197662 C-35.35684624 34.19961037 -35.36118628 32.28723403 -35.37107468 30.37489319 C-35.38380526 27.75900423 -35.37791142 25.1437779 -35.36749268 22.52789307 C-35.37554908 21.77573462 -35.38360548 21.02357617 -35.39190602 20.24862504 C-35.32992827 13.56972257 -33.77103884 7.0480603 -28.875 2.1875 C-20.88233465 -5.13492088 -9.05518346 -6.23801528 0 0 Z " fill="#ffffff" transform="translate(77,238)"/>
<path d="M0 0 C5.13232593 4.64712705 7.49044944 9.97225325 8.32766283 16.87298882 C8.43750406 19.32663446 8.45955788 21.76465658 8.44560242 24.22071838 C8.45224924 25.15129104 8.45889607 26.0818637 8.46574432 27.04063553 C8.48428801 30.1360092 8.48177483 33.2309934 8.47924805 36.32641602 C8.48827046 38.55432172 8.49859886 40.78222246 8.51013184 43.01011658 C8.53767146 49.04246226 8.54698229 55.07471368 8.55298591 61.10711408 C8.56237741 67.41722668 8.58858148 73.72726909 8.61299133 80.03733826 C8.65168236 90.62326876 8.68004423 101.20918777 8.70043945 111.79516602 C8.72146829 122.69525871 8.74875995 133.59530627 8.78442383 144.49536133 C8.78662265 145.16805782 8.78882148 145.84075431 8.79108693 146.53383554 C8.80215706 149.90880027 8.81334978 153.28376459 8.82460344 156.65872872 C8.91769827 184.62531079 8.98911681 212.59191806 9.046875 240.55859375 C10.15441635 239.44105965 10.15441635 239.44105965 11.28433228 238.3009491 C18.25001416 231.27440285 25.22364146 224.25582894 32.20508766 217.24494457 C35.79390276 213.64048618 39.37987882 210.03329579 42.95947266 206.41967773 C46.41528284 202.93122713 49.87840967 199.45019602 53.34669113 195.97414589 C54.6673743 194.64792768 55.98541796 193.31907546 57.30073929 191.98753929 C59.14617076 190.12027194 61.00083966 188.26266483 62.85791016 186.40698242 C63.39738281 185.85672394 63.93685547 185.30646545 64.49267578 184.73953247 C69.83095021 179.44416415 74.40030263 177.12560108 81.921875 177.05859375 C89.33146404 177.23036504 93.31397693 178.9792339 98.56640625 184.015625 C102.95167099 188.80529456 104.58039451 193.9171922 104.34714127 200.37891197 C103.01084621 210.07929565 97.27832314 216.1852076 90.54003906 222.81005859 C89.56596166 223.78900215 88.59317798 224.76923444 87.62158203 225.75064087 C84.99865216 228.39225314 82.35745842 231.01484902 79.71184254 233.63371611 C76.93528379 236.38750238 74.17431254 239.15684297 71.41107178 241.92398071 C66.77105692 246.56575673 62.11927875 251.19547597 57.45996094 255.81787109 C52.08494638 261.15053248 46.7278261 266.50065901 41.38019013 271.86076581 C36.2189771 277.0333947 31.04645525 282.19456475 25.86833954 287.35026932 C23.67207324 289.53728391 21.47957618 291.72797539 19.29004669 293.92173386 C16.70875826 296.50680851 14.11760127 299.08158202 11.51870728 301.64895248 C10.12055486 303.03466851 8.73205502 304.43010289 7.34393311 305.8258667 C1.80919884 311.26796915 -3.18825834 315.74856642 -11.078125 317.08984375 C-12.026875 317.07953125 -12.975625 317.06921875 -13.953125 317.05859375 C-15.37625 317.0740625 -15.37625 317.0740625 -16.828125 317.08984375 C-26.01909342 315.52737912 -31.65902647 309.43679338 -37.97753906 303.08349609 C-38.956634 302.11311008 -39.93655665 301.1435586 -40.91723633 300.17477417 C-43.56285964 297.55579514 -46.19567085 294.92429236 -48.82545948 292.28942442 C-51.0285242 290.08421112 -53.23753415 287.8850003 -55.44644713 285.68564761 C-60.66073759 280.49350032 -65.86435847 275.29082787 -71.06152344 270.08154297 C-76.4087556 264.72223243 -81.77407819 259.38153805 -87.14859986 254.04960668 C-91.77623416 249.45728972 -96.39207846 244.85334948 -100.99883819 240.24009287 C-103.74429881 237.49101995 -106.49394001 234.74650276 -109.25513458 232.01322556 C-111.85264066 229.44100719 -114.43502494 226.85448235 -117.00689697 224.25664139 C-118.3940154 222.8625934 -119.79584013 221.48322603 -121.19818115 220.10449219 C-127.3200008 213.87986482 -131.87203696 207.46040708 -132.453125 198.49609375 C-131.47914004 190.8259622 -128.78916839 185.58007382 -122.734375 180.75 C-118.46470867 177.89419248 -115.40927284 177.2177144 -110.203125 177.12109375 C-109.03265625 177.08113281 -107.8621875 177.04117188 -106.65625 177 C-96.08238632 178.59500264 -88.64976784 188.476741 -81.484375 195.734375 C-80.19609359 197.02825965 -78.90714228 198.32147761 -77.61755371 199.61405945 C-74.24407112 202.99893341 -70.87970017 206.39272207 -67.51721191 209.78851318 C-64.076878 213.25967155 -60.62791342 216.72223142 -57.1796875 220.18554688 C-50.4290746 226.96822309 -43.68806611 233.76035828 -36.953125 240.55859375 C-36.95073665 239.39607086 -36.94834829 238.23354797 -36.94588757 237.03579712 C-36.8885035 209.42772287 -36.81575575 181.8197238 -36.72413872 154.21174103 C-36.71287082 150.81222225 -36.70173232 147.41270306 -36.69067383 144.01318359 C-36.68847014 143.33641252 -36.68626646 142.65964145 -36.683996 141.96236217 C-36.64864248 131.01024955 -36.62376738 120.058137 -36.60277798 109.1059885 C-36.58100041 97.86454232 -36.54770959 86.62316991 -36.50442344 75.38178253 C-36.48047996 69.06914545 -36.46175848 62.75659015 -36.45551109 56.44390869 C-36.44946544 50.50137117 -36.42948394 44.55904294 -36.39884949 38.61658287 C-36.39006101 36.43655538 -36.38634835 34.25650055 -36.38811684 32.07645607 C-36.38977065 29.09687174 -36.37306056 26.11792459 -36.35185242 23.13842773 C-36.35669999 22.2784852 -36.36154757 21.41854267 -36.36654204 20.53254128 C-36.27703935 12.8978081 -34.52192106 6.12738981 -28.953125 0.55859375 C-19.87037247 -5.72293603 -9.13875316 -6.74439983 0 0 Z " fill="#ffffff" transform="translate(269.953125,46.44140625)"/>
</svg>